<svg id="Layer_1" data-name="Layer 1" xmlns="http://www.w3.org/2000/svg" xmlns:xlink="http://www.w3.org/1999/xlink" viewBox="0 0 2000.8 343.5">
  <defs>
    <linearGradient id="linear-gradient" x1="356.08" y1="587.72" x2="79.98" y2="587.72" gradientTransform="translate(0.2 -426.32)" gradientUnits="userSpaceOnUse">
      <stop offset="0" stop-color="#4171f7"/>
      <stop offset="1" stop-color="#f74bda"/>
    </linearGradient>
    <linearGradient id="linear-gradient-2" x1="97.56" y1="659.11" x2="184.1" y2="606.57" gradientTransform="translate(0.2 -426.32)" gradientUnits="userSpaceOnUse">
      <stop offset="0" stop-color="#f14cdb" stop-opacity="0.03"/>
      <stop offset="0" stop-color="#fff" stop-opacity="0"/>
      <stop offset="1" stop-color="#fff" stop-opacity="0.4"/>
    </linearGradient>
    <linearGradient id="linear-gradient-3" x1="230.55" y1="599.05" x2="340.79" y2="654.69" gradientTransform="translate(0.2 -426.32)" gradientUnits="userSpaceOnUse">
      <stop offset="0" stop-color="#231f20" stop-opacity="0.4"/>
      <stop offset="1" stop-color="#231f20" stop-opacity="0"/>
    </linearGradient>
    <linearGradient id="linear-gradient-4" x1="274.82" y1="604.49" x2="301.98" y2="739.5" gradientTransform="translate(0.2 -426.32)" gradientUnits="userSpaceOnUse">
      <stop offset="0" stop-color="#eae8fc"/>
      <stop offset="0.52" stop-color="#f7f7fe"/>
      <stop offset="1" stop-color="#fff"/>
    </linearGradient>
    <linearGradient id="linear-gradient-5" x1="401.93" y1="629.2" x2="375.49" y2="739.86" gradientTransform="translate(0.2 -426.32)" gradientUnits="userSpaceOnUse">
      <stop offset="0" stop-color="#dad4f4"/>
      <stop offset="0.65" stop-color="#f1effb"/>
      <stop offset="1" stop-color="#fff"/>
    </linearGradient>
    <linearGradient id="linear-gradient-6" x1="32.22" y1="604.49" x2="59.38" y2="739.5" xlink:href="#linear-gradient-4"/>
    <linearGradient id="linear-gradient-7" x1="159.33" y1="629.2" x2="132.9" y2="739.86" xlink:href="#linear-gradient-5"/>
  </defs>
  <g style="isolation: isolate">
    <path d="M554.4,253.1l74.2-91.9c11.5-13.8,32.4-34.6,32.4-34.6H558.8V74.1H734.2v42.6l-74.6,90.6c-12.4,15.5-33.3,36.4-33.3,36.4H737.7v52.4H554.4Z" transform="translate(0.2 -4)" fill="#da4dfc"/>
    <path d="M762.7,185.1c0-63.9,49.7-115.4,115-115.4,60.4,0,107.9,51.5,107.9,114.6a200.22,200.22,0,0,1-1.3,21.3H823c7.1,30.6,32.4,45.3,61.7,45.3,21.3,0,43.5-6.2,59.9-17.3l22.2,42.6a149.8,149.8,0,0,1-82.6,24.4C819.5,300.6,762.7,258.4,762.7,185.1Zm166.9-19c-4.4-28-26.6-46.6-53.7-46.6-25.8,0-48,18.6-53.7,46.6Z" transform="translate(0.2 -4)" fill="#da4dfc"/>
    <path d="M1024.6,4h59.5V296.2h-59.5Z" transform="translate(0.2 -4)" fill="#da4dfc"/>
    <path d="M1122.7,185.1c0-64.4,52.4-115.4,118.6-115.4a122.7,122.7,0,0,1,79.5,28.4l-36,41.7c-10.2-9.3-24.4-15.1-42.2-15.1-34.6,0-59.5,25.3-59.5,60.4,0,34.6,23.5,60.4,61.3,60.4,18.6,0,36.9-7.1,48.4-18.2l31.5,44.4c-21.3,18.2-51.1,28.9-83,28.9C1175.1,300.6,1122.7,249.5,1122.7,185.1Z" transform="translate(0.2 -4)" fill="#da4dfc"/>
    <path d="M1341.2,185.1c0-64.4,52.4-115.4,118.6-115.4,66.6,0,119,51.1,119,115.4s-52.4,115.4-119,115.4C1393.6,300.6,1341.2,249.5,1341.2,185.1Zm176.7,0c0-34.6-24.9-60.4-58.2-60.4s-58.2,25.8-58.2,60.4c0,35.1,24.9,60.4,58.2,60.4S1517.9,220.2,1517.9,185.1Z" transform="translate(0.2 -4)" fill="#da4dfc"/>
    <path d="M1617.4,74.1H1676v42.6c6.2-18.2,28.9-47.1,77.7-47.1v64.8c-51.5,0-76.8,23.5-76.8,76.4v85.3h-59.5V74.1Z" transform="translate(0.2 -4)" fill="#da4dfc"/>
    <path d="M1777.7,185.1c0-63.9,49.7-115.4,115-115.4,60.4,0,107.9,51.5,107.9,114.6a200.22,200.22,0,0,1-1.3,21.3H1838c7.1,30.6,32.4,45.3,61.7,45.3,21.3,0,43.5-6.2,59.9-17.3l22.2,42.6a149.8,149.8,0,0,1-82.6,24.4C1834.5,300.6,1777.7,258.4,1777.7,185.1Zm166.9-19c-4.4-28-26.6-46.6-53.7-46.6-25.8,0-48,18.6-53.7,46.6Z" transform="translate(0.2 -4)" fill="#da4dfc"/>
  </g>
  <g>
    <polygon points="357.6 241.6 357.6 81.1 218.6 0.9 79.6 81.1 79.6 241.6 218.6 321.9 357.6 241.6" fill="url(#linear-gradient)"/>
    <polygon points="218.5 161.7 79.6 81.5 79.6 241.6 218.5 321.8 218.5 161.7" opacity="0.56" fill="url(#linear-gradient-2)" style="isolation: isolate"/>
    <polygon points="218.5 321.8 218.6 321.9 357.6 241.6 357.6 81.5 357.5 81.4 218.5 161.7 218.5 321.8" opacity="0.56" fill="url(#linear-gradient-3)" style="isolation: isolate"/>
    <polygon points="340 118.6 242.6 174.8 242.6 287.2 340 343.5 437.4 287.2 437.4 174.8 340 118.6" fill="#fff"/>
    <polygon points="97.4 118.6 0 174.8 0 287.2 97.4 343.5 194.8 287.2 194.8 174.8 97.4 118.6" fill="#fff"/>
  </g>
  <polygon points="340 231 242.6 174.8 340 118.6 437.4 174.8 340 231" fill="#fff"/>
  <polygon points="340 343.5 242.6 287.2 242.6 174.8 340 231 340 343.5" fill="url(#linear-gradient-4)"/>
  <polygon points="437.4 287.2 340 343.5 340 231 437.4 174.8 437.4 287.2" fill="url(#linear-gradient-5)"/>
  <polygon points="97.4 231 0 174.8 97.4 118.6 194.8 174.8 97.4 231" fill="#fff"/>
  <polygon points="97.4 343.5 0 287.2 0 174.8 97.4 231 97.4 343.5" fill="url(#linear-gradient-6)"/>
  <polygon points="194.8 287.2 97.4 343.5 97.4 231 194.8 174.8 194.8 287.2" fill="url(#linear-gradient-7)"/>
</svg>
