<svg width="1080" height="1080" viewBox="0 0 1080 1080" fill="none" xmlns="http://www.w3.org/2000/svg">
<g clip-path="url(#clip0_104_389)">
<path fill-rule="evenodd" clip-rule="evenodd" d="M540 1080C838.234 1080 1080 838.234 1080 540C1080 241.766 838.234 0 540 0C241.766 0 0 241.766 0 540C0 838.234 241.766 1080 540 1080ZM521.768 562.238L511.3 568.282L511.407 568.344V811.064L401.023 747.334V791.511C401.023 802.556 408.778 815.988 418.344 821.511L539.644 891.543V891.731L539.807 891.637L539.969 891.731V891.543L661.27 821.511C670.835 815.988 678.59 802.556 678.59 791.511V747.334L566.15 812.252V568.703L566.878 568.282L556.409 562.238C546.844 556.715 531.334 556.715 521.768 562.238ZM584.952 535.292L585.403 535.552V535.032L777.097 424.357V550.955L815.355 528.866C824.92 523.344 832.675 509.912 832.675 498.866L832.675 359.255L833 359.067L832.675 358.88V358.426L832.282 358.653L711.375 288.847C701.809 283.324 686.299 283.324 676.734 288.847L638.476 310.935L750.885 375.835L557.614 487.42V499.508C557.614 510.554 565.368 523.985 574.934 529.508L584.568 535.07V535.514L584.952 535.292ZM368.625 287.563L247.556 357.463L247 357.142V357.784V497.583C247 508.629 254.755 522.06 264.32 527.583L302.578 549.671L302.578 421.542L496.004 533.216V533.627L496.36 533.422L496.716 533.627V533.216L506.473 527.583C516.039 522.06 523.793 508.629 523.793 497.583V486.528C524.066 486.292 524.066 485.982 523.793 485.745V485.495L523.593 485.61L330.847 374.328C330.575 374.171 330.208 374.103 329.854 374.125L441.524 309.652L403.266 287.563C393.701 282.041 378.191 282.041 368.625 287.563ZM777.097 582.506C777.097 571.461 784.851 558.029 794.417 552.506L832.675 530.418V658.771L832.613 658.807V702.343C832.613 713.389 824.859 726.82 815.293 732.343L693.667 802.564V758.387C693.667 747.341 701.422 733.91 710.988 728.387L777.097 690.219V582.506ZM302.578 690.859L368.625 728.991C378.191 734.514 385.946 747.946 385.946 758.991V803.168L264.32 732.947C254.755 727.424 247 713.993 247 702.947V658.771V530.418L285.258 552.506C294.824 558.029 302.578 571.461 302.578 582.506V690.859ZM398.456 269.862L487.382 218.521L487.498 218.589L521.427 199C530.993 193.477 546.502 193.477 556.068 199L683.251 272.429L644.993 294.517C635.427 300.04 619.918 300.04 610.352 294.517L538.63 253.109L471.355 291.95C461.789 297.473 446.28 297.473 436.714 291.95L398.456 269.862Z" fill="white"/>
</g>
<defs>
<clipPath id="clip0_104_389">
<rect width="1080" height="1080" fill="white"/>
</clipPath>
</defs>
</svg>
