<svg width="1080" height="246" viewBox="0 0 1080 246" fill="none" xmlns="http://www.w3.org/2000/svg">
<path d="M378.527 159.985V182.276H275.802V164.666L341.092 85.5316H277.139V63.2402H376.745V80.8504L311.232 159.985H378.527Z" fill="white"/>
<path d="M514.231 123.427C514.231 125.359 514.083 128.108 513.786 131.675H420.419C422.053 140.443 426.287 147.427 433.121 152.629C440.103 157.681 448.719 160.208 458.969 160.208C472.042 160.208 482.812 155.898 491.28 147.279L506.209 164.443C500.861 170.833 494.102 175.663 485.932 178.932C477.761 182.202 468.551 183.836 458.301 183.836C445.228 183.836 433.715 181.236 423.762 176.035C413.809 170.833 406.084 163.626 400.587 154.412C395.239 145.05 392.565 134.498 392.565 122.758C392.565 111.167 395.165 100.764 400.365 91.5503C405.712 82.188 413.066 74.9061 422.425 69.7048C431.784 64.5035 442.331 61.9028 454.067 61.9028C465.654 61.9028 475.979 64.5035 485.04 69.7048C494.251 74.7575 501.381 81.965 506.432 91.3274C511.632 100.541 514.231 111.241 514.231 123.427ZM454.067 84.1942C445.154 84.1942 437.577 86.8691 431.338 92.2191C425.247 97.4204 421.533 104.405 420.197 113.173H487.714C486.526 104.554 482.886 97.569 476.796 92.2191C470.705 86.8691 463.129 84.1942 454.067 84.1942Z" fill="white"/>
<path d="M540.973 16.8745H568.827V182.276H540.973V16.8745Z" fill="white"/>
<path d="M659.965 183.836C647.635 183.836 636.567 181.236 626.763 176.035C616.958 170.833 609.308 163.626 603.811 154.412C598.315 145.05 595.566 134.498 595.566 122.758C595.566 111.018 598.315 100.541 603.811 91.3274C609.308 82.1137 616.884 74.9061 626.54 69.7048C636.344 64.5035 647.486 61.9028 659.965 61.9028C671.7 61.9028 681.951 64.2806 690.715 69.0361C699.629 73.7916 706.313 80.6276 710.77 89.5441L689.378 102.027C685.962 96.5287 681.654 92.442 676.454 89.767C671.403 86.9434 665.833 85.5317 659.742 85.5317C649.343 85.5317 640.727 88.9497 633.893 95.7857C627.06 102.473 623.643 111.464 623.643 122.758C623.643 134.052 626.986 143.118 633.671 149.954C640.504 156.641 649.194 159.985 659.742 159.985C665.833 159.985 671.403 158.647 676.454 155.972C681.654 153.149 685.962 148.988 689.378 143.489L710.77 155.972C706.165 164.889 699.406 171.799 690.492 176.703C681.728 181.459 671.552 183.836 659.965 183.836Z" fill="white"/>
<path d="M786.532 183.837C774.499 183.837 763.655 181.236 753.999 176.035C744.343 170.834 736.766 163.626 731.27 154.412C725.922 145.05 723.248 134.499 723.248 122.759C723.248 111.019 725.922 100.542 731.27 91.3279C736.766 82.1141 744.343 74.9066 753.999 69.7053C763.655 64.504 774.499 61.9033 786.532 61.9033C798.713 61.9033 809.632 64.504 819.288 69.7053C828.944 74.9066 836.446 82.1141 841.794 91.3279C847.291 100.542 850.039 111.019 850.039 122.759C850.039 134.499 847.291 145.05 841.794 154.412C836.446 163.626 828.944 170.834 819.288 176.035C809.632 181.236 798.713 183.837 786.532 183.837ZM786.532 159.985C796.782 159.985 805.25 156.567 811.935 149.731C818.62 142.895 821.962 133.904 821.962 122.759C821.962 111.613 818.62 102.622 811.935 95.7862C805.25 88.9502 796.782 85.5322 786.532 85.5322C776.282 85.5322 767.814 88.9502 761.129 95.7862C754.593 102.622 751.325 111.613 751.325 122.759C751.325 133.904 754.593 142.895 761.129 149.731C767.814 156.567 776.282 159.985 786.532 159.985Z" fill="white"/>
<path d="M903.295 80.6276C911.317 68.1444 925.43 61.9028 945.633 61.9028V88.4295C943.256 87.9837 941.102 87.7608 939.171 87.7608C928.327 87.7608 919.859 90.9559 913.768 97.3461C907.678 103.588 904.632 112.653 904.632 124.542V182.276H876.778V63.2403H903.295V80.6276Z" fill="white"/>
<path d="M1080 123.427C1080 125.359 1079.85 128.109 1079.56 131.675H986.189C987.823 140.443 992.057 147.428 998.89 152.629C1005.87 157.682 1014.49 160.208 1024.74 160.208C1037.81 160.208 1048.58 155.899 1057.05 147.279L1071.98 164.444C1066.63 170.834 1059.87 175.663 1051.7 178.933C1043.53 182.202 1034.32 183.837 1024.07 183.837C1011 183.837 999.484 181.236 989.531 176.035C979.578 170.834 971.853 163.626 966.357 154.412C961.009 145.05 958.335 134.499 958.335 122.759C958.335 111.167 960.935 100.765 966.134 91.5508C971.482 82.1884 978.835 74.9066 988.194 69.7053C997.553 64.504 1008.1 61.9033 1019.84 61.9033C1031.42 61.9033 1041.75 64.504 1050.81 69.7053C1060.02 74.758 1067.15 81.9655 1072.2 91.3279C1077.4 100.542 1080 111.242 1080 123.427ZM1019.84 84.1947C1010.92 84.1947 1003.35 86.8696 997.108 92.2196C991.017 97.4209 987.303 104.405 985.966 113.173H1053.48C1052.3 104.554 1048.66 97.5695 1042.57 92.2196C1036.47 86.8696 1028.9 84.1947 1019.84 84.1947Z" fill="white"/>
<path fill-rule="evenodd" clip-rule="evenodd" d="M122.58 245.319C190.279 245.319 245.16 190.438 245.16 122.739C245.16 55.04 190.279 0.15918 122.58 0.15918C54.8808 0.15918 0 55.04 0 122.739C0 190.438 54.8808 245.319 122.58 245.319ZM118.444 127.787L116.067 129.159L116.091 129.173V184.271L91.0332 169.804V179.832C91.0332 182.339 92.7935 185.388 94.965 186.642L122.501 202.54V202.582L122.537 202.561L122.574 202.582V202.54L150.11 186.642C152.281 185.388 154.042 182.339 154.042 179.832V169.804L128.517 184.54V129.255L128.683 129.159L126.307 127.787C124.136 126.533 120.615 126.533 118.444 127.787ZM132.784 121.67L132.886 121.729V121.611L176.4 96.4886V125.226L185.085 120.212C187.256 118.958 189.017 115.909 189.017 113.402V81.7101L189.09 81.6675L189.017 81.6248V81.5217L188.927 81.5732L161.482 65.7274C159.31 64.4738 155.79 64.4738 153.618 65.7274L144.934 70.7415L170.45 85.4736L126.578 110.803V113.547C126.578 116.055 128.338 119.104 130.51 120.357L132.697 121.62V121.721L132.784 121.67ZM83.6773 65.4357L56.1946 81.3029L56.0684 81.23V81.3758V113.11C56.0684 115.617 57.8287 118.666 60.0001 119.92L68.6846 124.934V95.8481L112.593 121.199V121.292L112.674 121.245L112.755 121.292V121.199L114.969 119.92C117.141 118.666 118.901 115.617 118.901 113.11V110.601C118.963 110.547 118.963 110.477 118.901 110.423V110.366L118.855 110.392L75.1024 85.1314C75.0404 85.0956 74.9565 85.0803 74.8757 85.0853L100.225 70.4498L91.5408 65.4357C89.3693 64.1821 85.8487 64.1821 83.6773 65.4357ZM176.4 132.388C176.4 129.881 178.16 126.832 180.331 125.578L189.016 120.564V149.7L189.001 149.708V159.591C189.001 162.098 187.241 165.147 185.07 166.401L157.461 182.341V172.313C157.461 169.805 159.221 166.756 161.393 165.503L176.4 156.838V132.388ZM68.6846 156.984L83.6773 165.64C85.8487 166.894 87.609 169.943 87.609 172.45V182.478L60.0001 166.538C57.8287 165.284 56.0684 162.235 56.0684 159.728V149.7V120.564L64.7529 125.578C66.9243 126.832 68.6846 129.881 68.6846 132.388V156.984ZM90.4492 61.4176L110.635 49.7632L110.662 49.7787L118.363 45.3322C120.535 44.0786 124.056 44.0786 126.227 45.3322L155.098 62.0007L146.413 67.0147C144.242 68.2683 140.721 68.2683 138.549 67.0147L122.268 57.6148L106.997 66.4316C104.826 67.6853 101.305 67.6853 99.1337 66.4316L90.4492 61.4176Z" fill="white"/>
</svg>
