<svg width="1080" height="246" viewBox="0 0 1080 246" fill="none" xmlns="http://www.w3.org/2000/svg">
<path d="M378.527 159.826V182.117H275.802V164.507L341.092 85.3724H277.139V63.0811H376.745V80.6912L311.232 159.826H378.527Z" fill="#0A0A0A"/>
<path d="M514.231 123.268C514.231 125.2 514.083 127.949 513.786 131.516H420.419C422.053 140.284 426.287 147.268 433.121 152.469C440.103 157.522 448.719 160.048 458.969 160.048C472.042 160.048 482.812 155.739 491.28 147.12L506.209 164.284C500.861 170.674 494.102 175.504 485.932 178.773C477.761 182.043 468.551 183.677 458.301 183.677C445.228 183.677 433.715 181.077 423.762 175.875C413.809 170.674 406.084 163.467 400.587 154.253C395.239 144.89 392.565 134.339 392.565 122.599C392.565 111.008 395.165 100.605 400.365 91.3911C405.712 82.0288 413.066 74.7469 422.425 69.5456C431.784 64.3443 442.331 61.7437 454.067 61.7437C465.654 61.7437 475.979 64.3443 485.04 69.5456C494.251 74.5983 501.381 81.8059 506.432 91.1682C511.632 100.382 514.231 111.082 514.231 123.268ZM454.067 84.035C445.154 84.035 437.577 86.71 431.338 92.0599C425.247 97.2612 421.533 104.246 420.197 113.014H487.714C486.526 104.394 482.886 97.4098 476.796 92.0599C470.705 86.71 463.129 84.035 454.067 84.035Z" fill="#0A0A0A"/>
<path d="M540.974 16.7153H568.828V182.117H540.974V16.7153Z" fill="#0A0A0A"/>
<path d="M659.965 183.677C647.635 183.677 636.568 181.077 626.763 175.875C616.958 170.674 609.308 163.467 603.811 154.253C598.315 144.89 595.567 134.339 595.567 122.599C595.567 110.859 598.315 100.382 603.811 91.1682C609.308 81.9545 616.884 74.7469 626.54 69.5456C636.345 64.3443 647.486 61.7437 659.965 61.7437C671.701 61.7437 681.951 64.1214 690.716 68.8769C699.629 73.6324 706.314 80.4684 710.77 89.3849L689.379 101.868C685.962 96.3695 681.654 92.2828 676.454 89.6078C671.404 86.7843 665.833 85.3725 659.742 85.3725C649.343 85.3725 640.727 88.7905 633.894 95.6265C627.06 102.314 623.643 111.305 623.643 122.599C623.643 133.893 626.986 142.958 633.671 149.794C640.504 156.482 649.195 159.826 659.742 159.826C665.833 159.826 671.404 158.488 676.454 155.813C681.654 152.99 685.962 148.829 689.379 143.33L710.77 155.813C706.165 164.73 699.406 171.64 690.493 176.544C681.728 181.3 671.552 183.677 659.965 183.677Z" fill="#0A0A0A"/>
<path d="M786.533 183.677C774.5 183.677 763.656 181.077 754 175.875C744.344 170.674 736.767 163.467 731.271 154.253C725.923 144.89 723.249 134.339 723.249 122.599C723.249 110.859 725.923 100.382 731.271 91.1682C736.767 81.9545 744.344 74.7469 754 69.5456C763.656 64.3443 774.5 61.7437 786.533 61.7437C798.714 61.7437 809.633 64.3443 819.289 69.5456C828.945 74.7469 836.447 81.9545 841.795 91.1682C847.292 100.382 850.04 110.859 850.04 122.599C850.04 134.339 847.292 144.89 841.795 154.253C836.447 163.467 828.945 170.674 819.289 175.875C809.633 181.077 798.714 183.677 786.533 183.677ZM786.533 159.826C796.783 159.826 805.251 156.408 811.936 149.572C818.621 142.736 821.963 133.745 821.963 122.599C821.963 111.453 818.621 102.463 811.936 95.6265C805.251 88.7905 796.783 85.3725 786.533 85.3725C776.283 85.3725 767.815 88.7905 761.13 95.6265C754.594 102.463 751.326 111.453 751.326 122.599C751.326 133.745 754.594 142.736 761.13 149.572C767.815 156.408 776.283 159.826 786.533 159.826Z" fill="#0A0A0A"/>
<path d="M903.295 80.4684C911.317 67.9852 925.43 61.7437 945.633 61.7437V88.2704C943.256 87.8245 941.102 87.6016 939.171 87.6016C928.327 87.6016 919.859 90.7967 913.769 97.1869C907.678 103.428 904.632 112.494 904.632 124.382V182.117H876.779V63.0811H903.295V80.4684Z" fill="#0A0A0A"/>
<path d="M1080 123.268C1080 125.2 1079.85 127.949 1079.56 131.516H986.189C987.823 140.284 992.057 147.268 998.89 152.469C1005.87 157.522 1014.49 160.048 1024.74 160.048C1037.81 160.048 1048.58 155.739 1057.05 147.12L1071.98 164.284C1066.63 170.674 1059.87 175.504 1051.7 178.773C1043.53 182.043 1034.32 183.677 1024.07 183.677C1011 183.677 999.484 181.077 989.531 175.875C979.578 170.674 971.853 163.467 966.357 154.253C961.009 144.89 958.335 134.339 958.335 122.599C958.335 111.008 960.935 100.605 966.134 91.3911C971.482 82.0288 978.835 74.7469 988.194 69.5456C997.553 64.3443 1008.1 61.7437 1019.84 61.7437C1031.42 61.7437 1041.75 64.3443 1050.81 69.5456C1060.02 74.5983 1067.15 81.8059 1072.2 91.1682C1077.4 100.382 1080 111.082 1080 123.268ZM1019.84 84.035C1010.92 84.035 1003.35 86.71 997.108 92.0599C991.017 97.2612 987.303 104.246 985.966 113.014H1053.48C1052.3 104.394 1048.66 97.4098 1042.57 92.0599C1036.47 86.71 1028.9 84.035 1019.84 84.035Z" fill="#0A0A0A"/>
<path fill-rule="evenodd" clip-rule="evenodd" d="M122.58 245.16C190.279 245.16 245.16 190.279 245.16 122.58C245.16 54.8808 190.279 0 122.58 0C54.8808 0 0 54.8808 0 122.58C0 190.279 54.8808 245.16 122.58 245.16ZM118.444 127.628L116.067 129L116.091 129.014V184.112L91.0332 169.645V179.673C91.0332 182.18 92.7935 185.229 94.965 186.483L122.501 202.381V202.423L122.537 202.402L122.574 202.423V202.381L150.11 186.483C152.281 185.229 154.042 182.18 154.042 179.673V169.645L128.517 184.381V129.096L128.683 129L126.307 127.628C124.136 126.374 120.615 126.374 118.444 127.628ZM132.784 121.511L132.886 121.57V121.452L176.4 96.3294V125.066L185.085 120.052C187.256 118.799 189.017 115.75 189.017 113.243V81.5512L189.09 81.5085L189.017 81.4659V81.3625L188.927 81.4142L161.482 65.5685C159.31 64.3148 155.79 64.3148 153.618 65.5685L144.934 70.5825L170.45 85.3146L126.578 110.644V113.388C126.578 115.896 128.338 118.944 130.51 120.198L132.697 121.461V121.561L132.784 121.511ZM83.6773 65.2768L56.1946 81.1439L56.0684 81.0711V81.2168V112.951C56.0684 115.458 57.8287 118.507 60.0001 119.761L68.6846 124.775V95.6892L112.593 121.04V121.133L112.674 121.086L112.755 121.133V121.04L114.969 119.761C117.141 118.507 118.901 115.458 118.901 112.951V110.442C118.963 110.388 118.963 110.318 118.901 110.264V110.207L118.855 110.233L75.1024 84.9725C75.0404 84.9367 74.9565 84.9213 74.8757 84.9264L100.225 70.2908L91.5408 65.2768C89.3693 64.0231 85.8487 64.0231 83.6773 65.2768ZM176.4 132.229C176.4 129.722 178.16 126.673 180.331 125.419L189.016 120.405V149.541L189.001 149.549V159.432C189.001 161.939 187.241 164.988 185.07 166.242L157.461 182.182V172.154C157.461 169.646 159.221 166.597 161.393 165.344L176.4 156.679V132.229ZM68.6846 156.825L83.6773 165.481C85.8487 166.735 87.609 169.784 87.609 172.291V182.319L60.0001 166.379C57.8287 165.125 56.0684 162.076 56.0684 159.569V149.541V120.405L64.7529 125.419C66.9243 126.673 68.6846 129.722 68.6846 132.229V156.825ZM90.4492 61.2587L110.635 49.6043L110.662 49.6198L118.363 45.1733C120.535 43.9196 124.056 43.9196 126.227 45.1733L155.098 61.8417L146.413 66.8557C144.242 68.1094 140.721 68.1094 138.549 66.8557L122.268 57.4558L106.997 66.2727C104.826 67.5264 101.305 67.5264 99.1337 66.2727L90.4492 61.2587Z" fill="#0A0A0A"/>
</svg>
