<svg width="1080" height="246" viewBox="0 0 1080 246" fill="none" xmlns="http://www.w3.org/2000/svg">
<path d="M378.527 160.145V182.436H275.802V164.826L341.092 85.6917H277.139V63.4004H376.745V81.0106L311.232 160.145H378.527Z" fill="#1B63EF"/>
<path d="M514.231 123.587C514.231 125.519 514.083 128.268 513.786 131.835H420.419C422.053 140.603 426.287 147.587 433.121 152.789C440.103 157.841 448.719 160.368 458.969 160.368C472.042 160.368 482.812 156.058 491.28 147.439L506.209 164.603C500.861 170.993 494.102 175.823 485.932 179.093C477.761 182.362 468.551 183.997 458.301 183.997C445.228 183.997 433.715 181.396 423.762 176.195C413.809 170.993 406.084 163.786 400.587 154.572C395.239 145.21 392.565 134.658 392.565 122.918C392.565 111.327 395.165 100.924 400.365 91.7105C405.712 82.3481 413.066 75.0663 422.425 69.865C431.784 64.6636 442.331 62.063 454.067 62.063C465.654 62.063 475.979 64.6636 485.04 69.865C494.251 74.9177 501.381 82.1252 506.432 91.4876C511.632 100.701 514.231 111.401 514.231 123.587ZM454.067 84.3543C445.154 84.3543 437.577 87.0293 431.338 92.3792C425.247 97.5805 421.533 104.565 420.197 113.333H487.714C486.526 104.714 482.886 97.7292 476.796 92.3792C470.705 87.0293 463.129 84.3543 454.067 84.3543Z" fill="#1B63EF"/>
<path d="M540.973 17.0347H568.827V182.436H540.973V17.0347Z" fill="#1B63EF"/>
<path d="M659.965 183.997C647.635 183.997 636.567 181.396 626.763 176.195C616.958 170.994 609.308 163.786 603.811 154.573C598.315 145.21 595.566 134.659 595.566 122.919C595.566 111.179 598.315 100.702 603.811 91.4881C609.308 82.2743 616.884 75.0668 626.54 69.8654C636.344 64.6641 647.486 62.0635 659.965 62.0635C671.7 62.0635 681.951 64.4412 690.715 69.1967C699.629 73.9522 706.313 80.7882 710.77 89.7048L689.378 102.188C685.962 96.6894 681.654 92.6026 676.454 89.9277C671.403 87.1041 665.833 85.6923 659.742 85.6923C649.343 85.6923 640.727 89.1103 633.893 95.9463C627.06 102.634 623.643 111.625 623.643 122.919C623.643 134.213 626.986 143.278 633.671 150.114C640.504 156.802 649.194 160.145 659.742 160.145C665.833 160.145 671.403 158.808 676.454 156.133C681.654 153.309 685.962 149.148 689.378 143.65L710.77 156.133C706.165 165.05 699.406 171.96 690.492 176.864C681.728 181.619 671.552 183.997 659.965 183.997Z" fill="#1B63EF"/>
<path d="M786.532 183.997C774.499 183.997 763.655 181.396 753.999 176.195C744.343 170.993 736.766 163.786 731.27 154.572C725.922 145.21 723.248 134.658 723.248 122.918C723.248 111.178 725.922 100.701 731.27 91.4876C736.766 82.2738 744.343 75.0663 753.999 69.865C763.655 64.6636 774.499 62.063 786.532 62.063C798.713 62.063 809.632 64.6636 819.288 69.865C828.944 75.0663 836.446 82.2738 841.794 91.4876C847.291 100.701 850.039 111.178 850.039 122.918C850.039 134.658 847.291 145.21 841.794 154.572C836.446 163.786 828.944 170.993 819.288 176.195C809.632 181.396 798.713 183.997 786.532 183.997ZM786.532 160.145C796.782 160.145 805.25 156.727 811.935 149.891C818.62 143.055 821.962 134.064 821.962 122.918C821.962 111.773 818.62 102.782 811.935 95.9458C805.25 89.1098 796.782 85.6918 786.532 85.6918C776.282 85.6918 767.814 89.1098 761.129 95.9458C754.593 102.782 751.325 111.773 751.325 122.918C751.325 134.064 754.593 143.055 761.129 149.891C767.814 156.727 776.282 160.145 786.532 160.145Z" fill="#1B63EF"/>
<path d="M903.295 80.7882C911.317 68.3051 925.43 62.0635 945.633 62.0635V88.5902C943.256 88.1444 941.102 87.9214 939.171 87.9214C928.327 87.9214 919.859 91.1165 913.768 97.5067C907.678 103.748 904.632 112.813 904.632 124.702V182.437H876.778V63.401H903.295V80.7882Z" fill="#1B63EF"/>
<path d="M1080 123.588C1080 125.52 1079.85 128.269 1079.55 131.835H986.188C987.822 140.603 992.056 147.588 998.889 152.789C1005.87 157.842 1014.49 160.368 1024.74 160.368C1037.81 160.368 1048.58 156.059 1057.05 147.439L1071.98 164.604C1066.63 170.994 1059.87 175.824 1051.7 179.093C1043.53 182.362 1034.32 183.997 1024.07 183.997C1011 183.997 999.483 181.396 989.53 176.195C979.577 170.994 971.852 163.786 966.356 154.573C961.008 145.21 958.334 134.659 958.334 122.919C958.334 111.327 960.934 100.925 966.133 91.711C971.481 82.3486 978.834 75.0668 988.193 69.8654C997.552 64.6641 1008.1 62.0635 1019.84 62.0635C1031.42 62.0635 1041.75 64.6641 1050.81 69.8654C1060.02 74.9182 1067.15 82.1257 1072.2 91.4881C1077.4 100.702 1080 111.402 1080 123.588ZM1019.84 84.3548C1010.92 84.3548 1003.35 87.0298 997.107 92.3797C991.016 97.581 987.302 104.566 985.965 113.334H1053.48C1052.29 104.714 1048.65 97.7296 1042.56 92.3797C1036.47 87.0298 1028.9 84.3548 1019.84 84.3548Z" fill="#1B63EF"/>
<path fill-rule="evenodd" clip-rule="evenodd" d="M122.58 245.479C190.279 245.479 245.16 190.598 245.16 122.899C245.16 55.2002 190.279 0.319336 122.58 0.319336C54.8808 0.319336 0 55.2002 0 122.899C0 190.598 54.8808 245.479 122.58 245.479ZM118.444 127.947L116.067 129.319L116.091 129.333V184.431L91.0332 169.964V179.992C91.0332 182.499 92.7935 185.548 94.965 186.802L122.501 202.7V202.742L122.537 202.721L122.574 202.742V202.7L150.11 186.802C152.281 185.548 154.042 182.499 154.042 179.992V169.964L128.517 184.7V129.415L128.683 129.319L126.307 127.947C124.136 126.693 120.615 126.693 118.444 127.947ZM132.784 121.831L132.886 121.889V121.772L176.4 96.6488V125.386L185.085 120.372C187.256 119.118 189.017 116.069 189.017 113.562V81.8703L189.09 81.8276L189.017 81.785V81.6818L188.927 81.7334L161.482 65.8876C159.31 64.6339 155.79 64.6339 153.618 65.8876L144.934 70.9016L170.45 85.6338L126.578 110.963V113.707C126.578 116.215 128.338 119.264 130.51 120.517L132.697 121.78V121.881L132.784 121.831ZM83.6773 65.5959L56.1946 81.463L56.0684 81.3902V81.5359V113.27C56.0684 115.778 57.8287 118.826 60.0001 120.08L68.6846 125.094V96.0083L112.593 121.359V121.452L112.674 121.405L112.755 121.452V121.359L114.969 120.08C117.141 118.826 118.901 115.778 118.901 113.27V110.761C118.963 110.707 118.963 110.637 118.901 110.583V110.526L118.855 110.552L75.1024 85.2915C75.0404 85.2558 74.9565 85.2404 74.8757 85.2455L100.225 70.6099L91.5408 65.5959C89.3693 64.3422 85.8487 64.3422 83.6773 65.5959ZM176.4 132.548C176.4 130.041 178.16 126.992 180.331 125.738L189.016 120.724V149.86L189.001 149.868V159.751C189.001 162.258 187.241 165.307 185.07 166.561L157.461 182.501V172.473C157.461 169.965 159.221 166.917 161.393 165.663L176.4 156.999V132.548ZM68.6846 157.144L83.6773 165.8C85.8487 167.054 87.609 170.103 87.609 172.61V182.638L60.0001 166.698C57.8287 165.444 56.0684 162.396 56.0684 159.888V149.86V120.724L64.7529 125.738C66.9243 126.992 68.6846 130.041 68.6846 132.548V157.144ZM90.4492 61.5778L110.635 49.9234L110.662 49.9389L118.363 45.4924C120.535 44.2387 124.056 44.2387 126.227 45.4924L155.098 62.1608L146.413 67.1748C144.242 68.4285 140.721 68.4285 138.549 67.1748L122.268 57.7749L106.997 66.5918C104.826 67.8455 101.305 67.8455 99.1337 66.5918L90.4492 61.5778Z" fill="#1B63EF"/>
</svg>
