<svg width="1080" height="247" viewBox="0 0 1080 247" fill="none" xmlns="http://www.w3.org/2000/svg">
<path d="M378.528 160.783V183.074H275.803V165.464L341.093 86.3294H277.14V64.0381H376.746V81.6482L311.233 160.783H378.528Z" fill="#1B63EF"/>
<path d="M514.232 124.225C514.232 126.157 514.084 128.906 513.786 132.473H420.42C422.054 141.241 426.288 148.225 433.122 153.426C440.104 158.479 448.72 161.006 458.97 161.006C472.043 161.006 482.813 156.696 491.28 148.077L506.21 165.241C500.862 171.631 494.103 176.461 485.933 179.73C477.762 183 468.552 184.634 458.301 184.634C445.229 184.634 433.716 182.034 423.763 176.832C413.81 171.631 406.085 164.424 400.588 155.21C395.24 145.847 392.566 135.296 392.566 123.556C392.566 111.965 395.166 101.562 400.365 92.3482C405.713 82.9858 413.067 75.704 422.426 70.5027C431.785 65.3013 442.332 62.7007 454.068 62.7007C465.655 62.7007 475.979 65.3013 485.041 70.5027C494.252 75.5554 501.382 82.7629 506.433 92.1253C511.632 101.339 514.232 112.039 514.232 124.225ZM454.068 84.992C445.154 84.992 437.578 87.667 431.339 93.0169C425.248 98.2182 421.534 105.203 420.197 113.971H487.715C486.527 105.351 482.887 98.3668 476.796 93.0169C470.706 87.667 463.129 84.992 454.068 84.992Z" fill="#1B63EF"/>
<path d="M540.972 17.6724H568.826V183.074H540.972V17.6724Z" fill="#1B63EF"/>
<path d="M659.964 184.635C647.634 184.635 636.566 182.034 626.762 176.833C616.957 171.632 609.307 164.424 603.81 155.21C598.314 145.848 595.565 135.297 595.565 123.557C595.565 111.816 598.314 101.34 603.81 92.1258C609.307 82.912 616.883 75.7045 626.539 70.5031C636.344 65.3018 647.485 62.7012 659.964 62.7012C671.699 62.7012 681.95 65.0789 690.714 69.8344C699.628 74.5899 706.313 81.4259 710.769 90.3424L689.377 102.826C685.961 97.3271 681.653 93.2403 676.453 90.5654C671.402 87.7418 665.832 86.33 659.741 86.33C649.342 86.33 640.726 89.748 633.892 96.584C627.059 103.271 623.642 112.262 623.642 123.557C623.642 134.851 626.985 143.916 633.67 150.752C640.503 157.439 649.193 160.783 659.741 160.783C665.832 160.783 671.402 159.446 676.453 156.771C681.653 153.947 685.961 149.786 689.377 144.288L710.769 156.771C706.164 165.687 699.405 172.598 690.491 177.502C681.727 182.257 671.551 184.635 659.964 184.635Z" fill="#1B63EF"/>
<path d="M786.532 184.634C774.499 184.634 763.654 182.034 753.998 176.832C744.342 171.631 736.766 164.424 731.27 155.21C725.922 145.847 723.248 135.296 723.248 123.556C723.248 111.816 725.922 101.339 731.27 92.1253C736.766 82.9115 744.342 75.704 753.998 70.5027C763.654 65.3013 774.499 62.7007 786.532 62.7007C798.713 62.7007 809.632 65.3013 819.288 70.5027C828.944 75.704 836.446 82.9115 841.794 92.1253C847.29 101.339 850.039 111.816 850.039 123.556C850.039 135.296 847.29 145.847 841.794 155.21C836.446 164.424 828.944 171.631 819.288 176.832C809.632 182.034 798.713 184.634 786.532 184.634ZM786.532 160.783C796.782 160.783 805.25 157.365 811.935 150.529C818.619 143.693 821.962 134.702 821.962 123.556C821.962 112.41 818.619 103.42 811.935 96.5835C805.25 89.7475 796.782 86.3295 786.532 86.3295C776.282 86.3295 767.814 89.7475 761.129 96.5835C754.593 103.42 751.325 112.41 751.325 123.556C751.325 134.702 754.593 143.693 761.129 150.529C767.814 157.365 776.282 160.783 786.532 160.783Z" fill="#1B63EF"/>
<path d="M903.294 81.4259C911.316 68.9427 925.429 62.7012 945.632 62.7012V89.2279C943.255 88.7821 941.101 88.5591 939.17 88.5591C928.326 88.5591 919.858 91.7542 913.767 98.1444C907.677 104.386 904.631 113.451 904.631 125.34V183.074H876.777V64.0387H903.294V81.4259Z" fill="#1B63EF"/>
<path d="M1080 124.225C1080 126.157 1079.85 128.906 1079.55 132.473H986.188C987.822 141.241 992.056 148.225 998.889 153.426C1005.87 158.479 1014.49 161.006 1024.74 161.006C1037.81 161.006 1048.58 156.696 1057.05 148.077L1071.98 165.241C1066.63 171.631 1059.87 176.461 1051.7 179.73C1043.53 183 1034.32 184.634 1024.07 184.634C1011 184.634 999.483 182.034 989.53 176.832C979.577 171.631 971.852 164.424 966.356 155.21C961.008 145.847 958.334 135.296 958.334 123.556C958.334 111.965 960.934 101.562 966.133 92.3482C971.481 82.9858 978.834 75.704 988.193 70.5027C997.552 65.3013 1008.1 62.7007 1019.84 62.7007C1031.42 62.7007 1041.75 65.3013 1050.81 70.5027C1060.02 75.5554 1067.15 82.7629 1072.2 92.1253C1077.4 101.339 1080 112.039 1080 124.225ZM1019.84 84.992C1010.92 84.992 1003.35 87.667 997.107 93.0169C991.016 98.2182 987.302 105.203 985.965 113.971H1053.48C1052.29 105.351 1048.65 98.3668 1042.56 93.0169C1036.47 87.667 1028.9 84.992 1019.84 84.992Z" fill="#1B63EF"/>
<circle cx="122.58" cy="123.537" r="122.58" fill="#1B63EF"/>
<path d="M116.067 129.957L118.444 128.585C120.615 127.331 124.136 127.331 126.307 128.585L128.683 129.957L122.375 133.599L116.067 129.957Z" fill="white"/>
<path d="M116.091 129.967L122.399 133.609L122.399 188.968L116.091 185.326L116.091 129.967Z" fill="white"/>
<path d="M122.209 133.628L128.517 129.986L128.517 185.345L122.209 188.987L122.209 133.628Z" fill="white"/>
<path d="M122.501 188.811L154.042 170.601L154.042 180.629C154.042 183.136 152.281 186.185 150.11 187.439L122.501 203.379L122.501 188.811Z" fill="white"/>
<path d="M91.0332 170.601L122.574 188.811L122.574 203.379L94.9649 187.439C92.7935 186.185 91.0332 183.136 91.0332 180.629L91.0332 170.601Z" fill="white"/>
<path d="M126.578 111.601L132.886 115.243L132.886 122.527L130.51 121.155C128.338 119.901 126.578 116.852 126.578 114.345L126.578 111.601Z" fill="white"/>
<path d="M126.578 111.601L170.735 86.1066L177.043 89.7486L132.886 115.243L126.578 111.601Z" fill="white"/>
<path d="M144.934 71.5391L153.618 66.5251C155.79 65.2714 159.31 65.2714 161.482 66.5251L189.091 82.4651L176.474 89.7491L144.934 71.5391Z" fill="white"/>
<path d="M132.697 115.234L176.854 89.7399L176.854 97.0239L132.697 122.518L132.697 115.234Z" fill="white"/>
<path d="M176.4 89.603L189.017 82.319L189.017 114.199C189.017 116.706 187.256 119.755 185.085 121.009L176.4 126.023L176.4 89.603Z" fill="white"/>
<path d="M56.0684 82.1733L83.6773 66.2333C85.8487 64.9797 89.3693 64.9797 91.5408 66.2333L100.225 71.2473L68.6846 89.4573L56.0684 82.1733Z" fill="white"/>
<path d="M112.593 114.806L118.901 111.164L118.901 113.908C118.901 116.415 117.141 119.464 114.969 120.718L112.593 122.09L112.593 114.806Z" fill="white"/>
<path d="M68.5977 89.3115L112.755 114.806L112.755 122.09L68.5977 96.5955L68.5977 89.3115Z" fill="white"/>
<path d="M56.0684 82.0278L68.6846 89.3118L68.6846 125.732L60.0001 120.718C57.8287 119.464 56.0684 116.415 56.0684 113.908L56.0684 82.0278Z" fill="white"/>
<path d="M68.7942 89.571C68.6857 89.5083 68.6857 89.4067 68.7942 89.344L74.7092 85.929C74.8178 85.8663 74.9938 85.8663 75.1024 85.929L118.866 111.196C118.975 111.259 118.975 111.36 118.866 111.423L112.951 114.838C112.843 114.901 112.667 114.901 112.558 114.838L68.7942 89.571Z" fill="white"/>
<path d="M176.4 133.185C176.4 130.678 178.16 127.629 180.331 126.376L189.016 121.362L189.016 150.498L176.4 157.782L176.4 133.185Z" fill="white"/>
<path d="M157.461 173.11C157.461 170.602 159.221 167.554 161.393 166.3L189.001 150.36L189.001 160.388C189.001 162.895 187.241 165.944 185.07 167.198L157.461 183.138L157.461 173.11Z" fill="white"/>
<path d="M56.0684 150.498L83.6773 166.438C85.8487 167.691 87.609 170.74 87.609 173.248L87.609 183.276L60.0001 167.336C57.8287 166.082 56.0684 163.033 56.0684 160.526L56.0684 150.498Z" fill="white"/>
<path d="M56.0684 121.361L64.7529 126.375C66.9243 127.629 68.6846 130.678 68.6846 133.185L68.6846 157.781L56.0684 150.497L56.0684 121.361Z" fill="white"/>
<path d="M90.4491 62.2153L110.635 50.5609L123.251 57.8449L106.997 67.2293C104.826 68.483 101.305 68.483 99.1336 67.2293L90.4491 62.2153Z" fill="white"/>
<path d="M109.679 51.144L118.363 46.13C120.535 44.8764 124.056 44.8764 126.227 46.13L155.097 62.7984L146.413 67.8125C144.242 69.0661 140.721 69.0661 138.549 67.8125L109.679 51.144Z" fill="white"/>
</svg>
