<svg width="1080" height="246" viewBox="0 0 1080 246" fill="none" xmlns="http://www.w3.org/2000/svg">
<path d="M378.527 160.304V182.595H275.802V164.985L341.092 85.8509H277.139V63.5596H376.745V81.1697L311.232 160.304H378.527Z" fill="#0A0A0A"/>
<path d="M514.231 123.746C514.231 125.678 514.083 128.427 513.785 131.994H420.419C422.053 140.762 426.287 147.747 433.121 152.948C440.103 158.001 448.719 160.527 458.969 160.527C472.042 160.527 482.812 156.217 491.279 147.598L506.209 164.762C500.861 171.153 494.102 175.982 485.932 179.252C477.761 182.521 468.551 184.156 458.3 184.156C445.228 184.156 433.715 181.555 423.762 176.354C413.809 171.153 406.084 163.945 400.587 154.731C395.239 145.369 392.565 134.818 392.565 123.078C392.565 111.486 395.165 101.083 400.364 91.8697C405.712 82.5073 413.066 75.2255 422.425 70.0241C431.784 64.8228 442.331 62.2222 454.067 62.2222C465.654 62.2222 475.978 64.8228 485.04 70.0241C494.251 75.0768 501.381 82.2844 506.432 91.6467C511.631 100.861 514.231 111.56 514.231 123.746ZM454.067 84.5135C445.153 84.5135 437.577 87.1885 431.338 92.5384C425.247 97.7397 421.533 104.724 420.196 113.492H487.714C486.526 104.873 482.886 97.8883 476.795 92.5384C470.705 87.1885 463.128 84.5135 454.067 84.5135Z" fill="#0A0A0A"/>
<path d="M540.972 17.1938H568.826V182.596H540.972V17.1938Z" fill="#0A0A0A"/>
<path d="M659.964 184.156C647.634 184.156 636.566 181.556 626.762 176.354C616.957 171.153 609.307 163.946 603.81 154.732C598.314 145.369 595.565 134.818 595.565 123.078C595.565 111.338 598.314 100.861 603.81 91.6472C609.307 82.4335 616.883 75.2259 626.539 70.0246C636.344 64.8233 647.485 62.2227 659.964 62.2227C671.699 62.2227 681.95 64.6004 690.714 69.3559C699.628 74.1114 706.313 80.9474 710.769 89.8639L689.377 102.347C685.961 96.8486 681.653 92.7618 676.453 90.0868C671.402 87.2633 665.832 85.8515 659.741 85.8515C649.342 85.8515 640.726 89.2695 633.892 96.1055C627.059 102.793 623.642 111.784 623.642 123.078C623.642 134.372 626.985 143.437 633.67 150.273C640.503 156.961 649.193 160.305 659.741 160.305C665.832 160.305 671.402 158.967 676.453 156.292C681.653 153.469 685.961 149.308 689.377 143.809L710.769 156.292C706.164 165.209 699.405 172.119 690.491 177.023C681.727 181.779 671.551 184.156 659.964 184.156Z" fill="#0A0A0A"/>
<path d="M786.532 184.156C774.499 184.156 763.654 181.555 753.998 176.354C744.342 171.153 736.766 163.945 731.27 154.731C725.922 145.369 723.248 134.818 723.248 123.078C723.248 111.337 725.922 100.861 731.27 91.6467C736.766 82.433 744.342 75.2255 753.998 70.0241C763.654 64.8228 774.499 62.2222 786.532 62.2222C798.713 62.2222 809.632 64.8228 819.288 70.0241C828.944 75.2255 836.446 82.433 841.794 91.6467C847.29 100.861 850.039 111.337 850.039 123.078C850.039 134.818 847.29 145.369 841.794 154.731C836.446 163.945 828.944 171.153 819.288 176.354C809.632 181.555 798.713 184.156 786.532 184.156ZM786.532 160.304C796.782 160.304 805.25 156.886 811.935 150.05C818.619 143.214 821.962 134.223 821.962 123.078C821.962 111.932 818.619 102.941 811.935 96.105C805.25 89.269 796.782 85.851 786.532 85.851C776.282 85.851 767.814 89.269 761.129 96.105C754.593 102.941 751.325 111.932 751.325 123.078C751.325 134.223 754.593 143.214 761.129 150.05C767.814 156.886 776.282 160.304 786.532 160.304Z" fill="#0A0A0A"/>
<path d="M903.294 80.9474C911.316 68.4642 925.429 62.2227 945.632 62.2227V88.7494C943.255 88.3035 941.101 88.0806 939.17 88.0806C928.326 88.0806 919.858 91.2757 913.767 97.6659C907.677 103.907 904.631 112.973 904.631 124.861V182.596H876.777V63.5601H903.294V80.9474Z" fill="#0A0A0A"/>
<path d="M1080 123.746C1080 125.678 1079.85 128.427 1079.55 131.994H986.188C987.822 140.762 992.056 147.747 998.889 152.948C1005.87 158.001 1014.49 160.527 1024.74 160.527C1037.81 160.527 1048.58 156.217 1057.05 147.598L1071.98 164.762C1066.63 171.153 1059.87 175.982 1051.7 179.252C1043.53 182.521 1034.32 184.156 1024.07 184.156C1011 184.156 999.483 181.555 989.53 176.354C979.577 171.153 971.852 163.945 966.356 154.731C961.008 145.369 958.334 134.818 958.334 123.078C958.334 111.486 960.934 101.083 966.133 91.8697C971.481 82.5073 978.834 75.2255 988.193 70.0241C997.552 64.8228 1008.1 62.2222 1019.84 62.2222C1031.42 62.2222 1041.75 64.8228 1050.81 70.0241C1060.02 75.0768 1067.15 82.2844 1072.2 91.6467C1077.4 100.861 1080 111.56 1080 123.746ZM1019.84 84.5135C1010.92 84.5135 1003.35 87.1885 997.107 92.5384C991.016 97.7397 987.302 104.724 985.965 113.492H1053.48C1052.29 104.873 1048.65 97.8883 1042.56 92.5384C1036.47 87.1885 1028.9 84.5135 1019.84 84.5135Z" fill="#0A0A0A"/>
<circle cx="122.58" cy="123.058" r="122.58" fill="#0A0A0A"/>
<path d="M116.067 129.478L118.444 128.106C120.615 126.852 124.136 126.852 126.307 128.106L128.683 129.478L122.375 133.12L116.067 129.478Z" fill="white"/>
<path d="M116.091 129.489L122.399 133.131L122.399 188.489L116.091 184.847L116.091 129.489Z" fill="white"/>
<path d="M122.209 133.15L128.517 129.508L128.517 184.866L122.209 188.508L122.209 133.15Z" fill="white"/>
<path d="M122.501 188.333L154.042 170.123L154.042 180.151C154.042 182.658 152.281 185.707 150.11 186.961L122.501 202.901L122.501 188.333Z" fill="white"/>
<path d="M91.0332 170.123L122.574 188.333L122.574 202.901L94.9649 186.961C92.7935 185.707 91.0332 182.658 91.0332 180.151L91.0332 170.123Z" fill="white"/>
<path d="M126.578 111.122L132.886 114.764L132.886 122.048L130.51 120.676C128.338 119.422 126.578 116.373 126.578 113.866L126.578 111.122Z" fill="white"/>
<path d="M126.578 111.122L170.735 85.6281L177.043 89.2701L132.886 114.764L126.578 111.122Z" fill="white"/>
<path d="M144.934 71.0605L153.618 66.0465C155.79 64.7929 159.31 64.7929 161.482 66.0465L189.091 81.9865L176.474 89.2705L144.934 71.0605Z" fill="white"/>
<path d="M132.697 114.755L176.854 89.2614L176.854 96.5454L132.697 122.039L132.697 114.755Z" fill="white"/>
<path d="M176.4 89.1245L189.017 81.8405L189.017 113.721C189.017 116.228 187.256 119.277 185.085 120.531L176.4 125.545L176.4 89.1245Z" fill="white"/>
<path d="M56.0684 81.6948L83.6773 65.7548C85.8487 64.5011 89.3693 64.5011 91.5408 65.7548L100.225 70.7688L68.6846 88.9788L56.0684 81.6948Z" fill="white"/>
<path d="M112.593 114.327L118.901 110.685L118.901 113.429C118.901 115.937 117.141 118.985 114.969 120.239L112.593 121.611L112.593 114.327Z" fill="white"/>
<path d="M68.5977 88.833L112.755 114.327L112.755 121.611L68.5977 96.117L68.5977 88.833Z" fill="white"/>
<path d="M56.0684 81.5493L68.6846 88.8333L68.6846 125.253L60.0001 120.239C57.8287 118.986 56.0684 115.937 56.0684 113.429L56.0684 81.5493Z" fill="white"/>
<path d="M68.7942 89.0925C68.6857 89.0298 68.6857 88.9282 68.7942 88.8655L74.7092 85.4505C74.8178 85.3878 74.9938 85.3878 75.1024 85.4505L118.866 110.718C118.975 110.78 118.975 110.882 118.866 110.945L112.951 114.36C112.843 114.422 112.667 114.422 112.558 114.36L68.7942 89.0925Z" fill="white"/>
<path d="M176.4 132.707C176.4 130.2 178.16 127.151 180.331 125.897L189.016 120.883L189.016 150.019L176.4 157.303L176.4 132.707Z" fill="white"/>
<path d="M157.461 172.631C157.461 170.124 159.221 167.075 161.393 165.821L189.001 149.881L189.001 159.909C189.001 162.417 187.241 165.466 185.07 166.719L157.461 182.659L157.461 172.631Z" fill="white"/>
<path d="M56.0684 150.019L83.6773 165.959C85.8487 167.213 87.609 170.262 87.609 172.769L87.609 182.797L60.0001 166.857C57.8287 165.603 56.0684 162.554 56.0684 160.047L56.0684 150.019Z" fill="white"/>
<path d="M56.0684 120.883L64.7529 125.897C66.9243 127.151 68.6846 130.199 68.6846 132.707L68.6846 157.303L56.0684 150.019L56.0684 120.883Z" fill="white"/>
<path d="M90.4491 61.7368L110.635 50.0824L123.251 57.3664L106.997 66.7508C104.826 68.0045 101.305 68.0045 99.1336 66.7508L90.4491 61.7368Z" fill="white"/>
<path d="M109.679 50.6655L118.363 45.6515C120.535 44.3978 124.056 44.3978 126.227 45.6515L155.097 62.3199L146.413 67.3339C144.242 68.5876 140.721 68.5876 138.549 67.3339L109.679 50.6655Z" fill="white"/>
</svg>
