<svg width="1080" height="246" viewBox="0 0 1080 246" fill="none" xmlns="http://www.w3.org/2000/svg">
<path d="M378.529 159.942V182.234H275.804V164.623L341.094 85.4891H277.141V63.1978H376.747V80.8079L311.234 159.942H378.529Z" fill="white"/>
<path d="M514.233 123.384C514.233 125.316 514.084 128.066 513.787 131.632H420.421C422.055 140.4 426.289 147.385 433.123 152.586C440.105 157.639 448.721 160.165 458.971 160.165C472.044 160.165 482.814 155.856 491.281 147.236L506.211 164.401C500.863 170.791 494.104 175.621 485.934 178.89C477.763 182.159 468.553 183.794 458.302 183.794C445.23 183.794 433.717 181.193 423.764 175.992C413.81 170.791 406.086 163.583 400.589 154.369C395.241 145.007 392.567 134.456 392.567 122.716C392.567 111.124 395.167 100.722 400.366 91.5078C405.714 82.1455 413.068 74.8636 422.427 69.6623C431.786 64.461 442.333 61.8604 454.069 61.8604C465.656 61.8604 475.98 64.461 485.042 69.6623C494.253 74.715 501.383 81.9226 506.434 91.2849C511.633 100.499 514.233 111.199 514.233 123.384ZM454.069 84.1517C445.155 84.1517 437.579 86.8267 431.34 92.1766C425.249 97.3779 421.535 104.363 420.198 113.13H487.716C486.528 104.511 482.888 97.5265 476.797 92.1766C470.707 86.8267 463.13 84.1517 454.069 84.1517Z" fill="white"/>
<path d="M540.974 16.832H568.828V182.234H540.974V16.832Z" fill="white"/>
<path d="M659.965 183.794C647.635 183.794 636.568 181.193 626.763 175.992C616.958 170.791 609.308 163.583 603.811 154.369C598.315 145.007 595.567 134.456 595.567 122.716C595.567 110.976 598.315 100.499 603.811 91.2849C609.308 82.0712 616.884 74.8636 626.54 69.6623C636.345 64.461 647.486 61.8604 659.965 61.8604C671.701 61.8604 681.951 64.2381 690.716 68.9936C699.629 73.7491 706.314 80.5851 710.77 89.5016L689.379 101.985C685.962 96.4862 681.654 92.3995 676.454 89.7245C671.404 86.901 665.833 85.4892 659.742 85.4892C649.343 85.4892 640.727 88.9072 633.894 95.7432C627.06 102.431 623.643 111.421 623.643 122.716C623.643 134.01 626.986 143.075 633.671 149.911C640.504 156.599 649.195 159.942 659.742 159.942C665.833 159.942 671.404 158.605 676.454 155.93C681.654 153.106 685.962 148.945 689.379 143.447L710.77 155.93C706.165 164.846 699.406 171.757 690.493 176.661C681.728 181.416 671.552 183.794 659.965 183.794Z" fill="white"/>
<path d="M786.533 183.794C774.5 183.794 763.656 181.193 754 175.992C744.344 170.791 736.767 163.583 731.271 154.369C725.923 145.007 723.249 134.456 723.249 122.716C723.249 110.976 725.923 100.499 731.271 91.2849C736.767 82.0712 744.344 74.8636 754 69.6623C763.656 64.461 774.5 61.8604 786.533 61.8604C798.714 61.8604 809.633 64.461 819.289 69.6623C828.945 74.8636 836.447 82.0712 841.795 91.2849C847.292 100.499 850.04 110.976 850.04 122.716C850.04 134.456 847.292 145.007 841.795 154.369C836.447 163.583 828.945 170.791 819.289 175.992C809.633 181.193 798.714 183.794 786.533 183.794ZM786.533 159.942C796.783 159.942 805.251 156.524 811.936 149.688C818.621 142.852 821.963 133.861 821.963 122.716C821.963 111.57 818.621 102.579 811.936 95.7432C805.251 88.9072 796.783 85.4892 786.533 85.4892C776.283 85.4892 767.815 88.9072 761.13 95.7432C754.594 102.579 751.326 111.57 751.326 122.716C751.326 133.861 754.594 142.852 761.13 149.688C767.815 156.524 776.283 159.942 786.533 159.942Z" fill="white"/>
<path d="M903.295 80.5851C911.317 68.1019 925.43 61.8604 945.633 61.8604V88.3871C943.256 87.9412 941.102 87.7183 939.171 87.7183C928.327 87.7183 919.859 90.9134 913.769 97.3036C907.678 103.545 904.632 112.61 904.632 124.499V182.234H876.779V63.1978H903.295V80.5851Z" fill="white"/>
<path d="M1080 123.384C1080 125.316 1079.85 128.066 1079.55 131.632H986.189C987.823 140.4 992.056 147.385 998.89 152.586C1005.87 157.639 1014.49 160.165 1024.74 160.165C1037.81 160.165 1048.58 155.856 1057.05 147.236L1071.98 164.401C1066.63 170.791 1059.87 175.621 1051.7 178.89C1043.53 182.159 1034.32 183.794 1024.07 183.794C1011 183.794 999.484 181.193 989.531 175.992C979.578 170.791 971.853 163.583 966.357 154.369C961.009 145.007 958.335 134.456 958.335 122.716C958.335 111.124 960.934 100.722 966.134 91.5078C971.482 82.1455 978.835 74.8636 988.194 69.6623C997.553 64.461 1008.1 61.8604 1019.84 61.8604C1031.42 61.8604 1041.75 64.461 1050.81 69.6623C1060.02 74.715 1067.15 81.9226 1072.2 91.2849C1077.4 100.499 1080 111.199 1080 123.384ZM1019.84 84.1517C1010.92 84.1517 1003.35 86.8267 997.107 92.1766C991.017 97.3779 987.303 104.363 985.966 113.13H1053.48C1052.3 104.511 1048.66 97.5265 1042.56 92.1766C1036.47 86.8267 1028.9 84.1517 1019.84 84.1517Z" fill="white"/>
<circle cx="122.58" cy="122.696" r="122.58" fill="white"/>
<path d="M116.067 129.117L118.444 127.745C120.615 126.491 124.136 126.491 126.307 127.745L128.683 129.117L122.375 132.759L116.067 129.117Z" fill="#1B63EF"/>
<path d="M116.091 129.127L122.399 132.769L122.399 188.128L116.091 184.486L116.091 129.127Z" fill="#1B63EF"/>
<path d="M122.209 132.789L128.517 129.147L128.517 184.505L122.209 188.147L122.209 132.789Z" fill="#1B63EF"/>
<path d="M122.501 187.971L154.042 169.761L154.042 179.789C154.042 182.297 152.281 185.346 150.11 186.599L122.501 202.539L122.501 187.971Z" fill="#1B63EF"/>
<path d="M91.0332 169.761L122.574 187.971L122.574 202.539L94.9649 186.599C92.7935 185.346 91.0332 182.297 91.0332 179.789L91.0332 169.761Z" fill="#1B63EF"/>
<path d="M126.578 110.761L132.886 114.403L132.886 121.687L130.51 120.315C128.338 119.061 126.578 116.012 126.578 113.505L126.578 110.761Z" fill="#1B63EF"/>
<path d="M126.578 110.761L170.735 85.2667L177.043 88.9087L132.886 114.403L126.578 110.761Z" fill="#1B63EF"/>
<path d="M144.934 70.6992L153.618 65.6852C155.79 64.4315 159.31 64.4315 161.482 65.6852L189.091 81.6252L176.474 88.9092L144.934 70.6992Z" fill="#1B63EF"/>
<path d="M132.697 114.394L176.854 88.9L176.854 96.184L132.697 121.678L132.697 114.394Z" fill="#1B63EF"/>
<path d="M176.4 88.7632L189.017 81.4792L189.017 113.359C189.017 115.867 187.256 118.915 185.085 120.169L176.4 125.183L176.4 88.7632Z" fill="#1B63EF"/>
<path d="M56.0684 81.333L83.6773 65.393C85.8487 64.1393 89.3693 64.1393 91.5408 65.393L100.225 70.407L68.6846 88.617L56.0684 81.333Z" fill="#1B63EF"/>
<path d="M112.593 113.965L118.901 110.323L118.901 113.067C118.901 115.575 117.141 118.624 114.969 119.877L112.593 121.249L112.593 113.965Z" fill="#1B63EF"/>
<path d="M68.5977 88.4717L112.755 113.966L112.755 121.25L68.5977 95.7557L68.5977 88.4717Z" fill="#1B63EF"/>
<path d="M56.0684 81.1875L68.6846 88.4715L68.6846 124.892L60.0001 119.877C57.8287 118.624 56.0684 115.575 56.0684 113.068L56.0684 81.1875Z" fill="#1B63EF"/>
<path d="M68.7942 88.7307C68.6857 88.668 68.6857 88.5664 68.7942 88.5037L74.7092 85.0887C74.8178 85.026 74.9938 85.026 75.1024 85.0887L118.866 110.356C118.975 110.418 118.975 110.52 118.866 110.583L112.951 113.998C112.843 114.06 112.667 114.06 112.558 113.998L68.7942 88.7307Z" fill="#1B63EF"/>
<path d="M176.4 132.346C176.4 129.838 178.16 126.789 180.331 125.536L189.016 120.522L189.016 149.658L176.4 156.942L176.4 132.346Z" fill="#1B63EF"/>
<path d="M157.461 172.27C157.461 169.763 159.221 166.714 161.393 165.46L189.001 149.52L189.001 159.548C189.001 162.055 187.241 165.104 185.07 166.358L157.461 182.298L157.461 172.27Z" fill="#1B63EF"/>
<path d="M56.0684 149.657L83.6773 165.597C85.8487 166.851 87.609 169.9 87.609 172.407L87.609 182.435L60.0001 166.495C57.8287 165.242 56.0684 162.193 56.0684 159.685L56.0684 149.657Z" fill="#1B63EF"/>
<path d="M56.0684 120.521L64.7529 125.535C66.9243 126.789 68.6846 129.838 68.6846 132.345L68.6846 156.941L56.0684 149.657L56.0684 120.521Z" fill="#1B63EF"/>
<path d="M90.4491 61.375L110.635 49.7206L123.251 57.0046L106.997 66.389C104.826 67.6427 101.305 67.6427 99.1336 66.389L90.4491 61.375Z" fill="#1B63EF"/>
<path d="M109.679 50.3037L118.363 45.2897C120.535 44.036 124.056 44.036 126.227 45.2897L155.097 61.9581L146.413 66.9721C144.242 68.2258 140.721 68.2258 138.549 66.9721L109.679 50.3037Z" fill="#1B63EF"/>
</svg>
